<svg width="20" height="16" viewBox="0 0 20 16" fill="none" xmlns="http://www.w3.org/2000/svg">
<path d="M16.9308 1.64164C15.6342 1.04645 14.2658 0.622014 12.8599 0.378977C12.8471 0.376595 12.834 0.3783 12.8222 0.383851C12.8105 0.389402 12.8008 0.398515 12.7945 0.409894C12.6187 0.722644 12.4239 1.13056 12.2876 1.45114C10.7503 1.22098 9.22092 1.22098 7.71525 1.45114C7.57892 1.12339 7.37709 0.722644 7.2005 0.409894C7.19396 0.398774 7.18422 0.389884 7.17255 0.384384C7.16088 0.378883 7.14783 0.377028 7.13509 0.379061C5.72907 0.621533 4.36058 1.04593 3.06409 1.64156C3.05299 1.6463 3.04365 1.65437 3.03734 1.66464C0.444503 5.53831 -0.26583 9.31673 0.08267 13.0483C0.0836554 13.0574 0.0864643 13.0663 0.0909303 13.0743C0.0953964 13.0824 0.101429 13.0894 0.10867 13.0951C1.81934 14.3514 3.47642 15.1141 5.10275 15.6196C5.1154 15.6233 5.1289 15.6232 5.14144 15.619C5.15398 15.6149 5.16496 15.6071 5.17292 15.5966C5.55759 15.0712 5.9005 14.5172 6.19459 13.9347C6.19863 13.9268 6.20094 13.918 6.20136 13.9091C6.20178 13.9001 6.2003 13.8912 6.19703 13.8829C6.19375 13.8746 6.18875 13.8671 6.18236 13.8608C6.17596 13.8546 6.16831 13.8497 6.15992 13.8466C5.61592 13.6403 5.098 13.3887 4.59975 13.1031C4.59067 13.0977 4.58303 13.0902 4.57753 13.0812C4.57203 13.0723 4.56882 13.0621 4.56819 13.0515C4.56757 13.041 4.56954 13.0305 4.57394 13.0209C4.57834 13.0114 4.58503 13.003 4.59342 12.9966C4.69825 12.9181 4.80317 12.8364 4.90325 12.7538C4.91215 12.7465 4.92291 12.7418 4.93434 12.7402C4.94577 12.7387 4.9574 12.7404 4.96792 12.7451C8.24109 14.2395 11.7846 14.2395 15.0191 12.7451C15.0296 12.74 15.0414 12.7381 15.0529 12.7395C15.0645 12.7409 15.0755 12.7456 15.0845 12.753C15.1847 12.8355 15.2895 12.9181 15.3952 12.9966C15.4036 13.003 15.4103 13.0112 15.4148 13.0208C15.4192 13.0303 15.4213 13.0408 15.4207 13.0513C15.4202 13.0618 15.4171 13.072 15.4117 13.081C15.4062 13.09 15.3987 13.0976 15.3897 13.103C14.8912 13.3941 14.3691 13.6426 13.8288 13.8458C13.8204 13.849 13.8128 13.854 13.8065 13.8603C13.8001 13.8667 13.7952 13.8743 13.792 13.8827C13.7888 13.8911 13.7874 13.9001 13.7879 13.909C13.7884 13.918 13.7908 13.9267 13.7949 13.9347C14.0953 14.5164 14.4382 15.0704 14.8158 15.5957C14.8235 15.6066 14.8344 15.6147 14.847 15.619C14.8596 15.6233 14.8732 15.6235 14.8859 15.6196C16.5201 15.114 18.1772 14.3513 19.8878 13.0951C19.8952 13.0897 19.9013 13.0828 19.9058 13.0749C19.9103 13.0669 19.9131 13.0581 19.9139 13.0491C20.3309 8.73489 19.2154 4.98748 16.9568 1.66539C16.9513 1.6546 16.9421 1.64623 16.9308 1.64164ZM6.68334 10.7761C5.69792 10.7761 4.88592 9.87139 4.88592 8.76031C4.88592 7.64931 5.68217 6.74456 6.68342 6.74456C7.69242 6.74456 8.4965 7.65723 8.48075 8.76039C8.48075 9.87139 7.6845 10.7761 6.68334 10.7761ZM13.329 10.7761C12.3436 10.7761 11.5316 9.87139 11.5316 8.76031C11.5316 7.64931 12.3278 6.74456 13.329 6.74456C14.338 6.74456 15.1421 7.65723 15.1263 8.76039C15.1263 9.87139 14.338 10.7761 13.329 10.7761Z" fill="#141414"/>
</svg>
