<svg width="16" height="16" viewBox="0 0 16 16" fill="none" xmlns="http://www.w3.org/2000/svg">
<path d="M1.05053 0.180242C0.810205 -0.0600807 0.420565 -0.0600807 0.180242 0.180242C-0.0600807 0.420565 -0.0600807 0.810205 0.180242 1.05053L14.9495 15.8198C15.1898 16.0601 15.5794 16.0601 15.8198 15.8198C16.0601 15.5794 16.0601 15.1898 15.8198 14.9495L1.05053 0.180242Z" fill="#808080"/>
<path d="M14.7692 2.6724V12.1584L2.95618 0.34532C3.07954 0.309846 3.20759 0.283971 3.33967 0.268644C4.86871 0.0911936 6.42383 1.83399e-08 8 1.83399e-08C9.57617 1.83399e-08 11.1313 0.0911938 12.6603 0.268644C13.889 0.41123 14.7692 1.46644 14.7692 2.6724Z" fill="#808080"/>
<path d="M1.23077 15.3846V3.84162L12.7697 15.3806L8 12.9957L2.12136 15.935C1.9306 16.0304 1.70405 16.0202 1.52263 15.9081C1.3412 15.796 1.23077 15.5979 1.23077 15.3846Z" fill="#808080"/>
</svg>
