<svg width="17" height="16" viewBox="0 0 17 16" fill="none" xmlns="http://www.w3.org/2000/svg">
<path d="M3.78353 2.16652C3.78331 2.60854 3.6075 3.03238 3.29478 3.34478C2.98207 3.65719 2.55806 3.83257 2.11603 3.83235C1.674 3.83213 1.25017 3.65632 0.937756 3.3436C0.625356 3.03089 0.449966 2.60688 0.450196 2.16485C0.450416 1.72282 0.626216 1.29899 0.938936 0.986584C1.25166 0.674184 1.67567 0.498794 2.1177 0.499024C2.55972 0.499244 2.98356 0.675044 3.29596 0.987764C3.60837 1.30048 3.78375 1.72449 3.78353 2.16652ZM3.83353 5.06652H0.500195V15.4999H3.83353V5.06652ZM9.10019 5.06652H5.78353V15.4999H9.0669V10.0249C9.0669 6.97485 13.0419 6.69152 13.0419 10.0249V15.4999H16.3335V8.89147C16.3335 3.74985 10.4502 3.94152 9.0669 6.46652L9.10019 5.06652Z" fill="#F4F4F4"/>
</svg>
