<svg width="16" height="16" viewBox="0 0 16 16" fill="none" xmlns="http://www.w3.org/2000/svg">
<path fill-rule="evenodd" clip-rule="evenodd" d="M7.67411 0.0745863C7.88011 -0.0248621 8.12023 -0.0248621 8.32623 0.0745863L15.5762 3.57459C15.9493 3.75467 16.1057 4.20304 15.9256 4.57606C15.7576 4.92403 15.3561 5.08351 15.0002 4.95718V14.5H15.2502C15.6644 14.5 16.0002 14.8358 16.0002 15.25C16.0002 15.6642 15.6644 16 15.2502 16H0.750172C0.335959 16 0.000172091 15.6642 0.000172091 15.25C0.000172091 14.8358 0.335959 14.5 0.750172 14.5H1.00017V4.95718C0.644205 5.08351 0.242745 4.92403 0.0747584 4.57606C-0.105321 4.20304 0.0510896 3.75467 0.42411 3.57459L7.67411 0.0745863ZM9 4C9 4.55228 8.55228 5 8 5C7.44772 5 7 4.55228 7 4C7 3.44772 7.44772 3 8 3C8.55228 3 9 3.44772 9 4ZM5.5 7.75C5.5 7.33579 5.16421 7 4.75 7C4.33579 7 4 7.33579 4 7.75V13.25C4 13.6642 4.33579 14 4.75 14C5.16421 14 5.5 13.6642 5.5 13.25V7.75ZM8.75 7.75C8.75 7.33579 8.41421 7 8 7C7.58579 7 7.25 7.33579 7.25 7.75V13.25C7.25 13.6642 7.58579 14 8 14C8.41421 14 8.75 13.6642 8.75 13.25V7.75ZM12 7.75C12 7.33579 11.6642 7 11.25 7C10.8358 7 10.5 7.33579 10.5 7.75V13.25C10.5 13.6642 10.8358 14 11.25 14C11.6642 14 12 13.6642 12 13.25V7.75Z" fill="#808080"/>
</svg>
