<svg width="24" height="24" viewBox="0 0 24 24" fill="none" xmlns="http://www.w3.org/2000/svg">
<g clip-path="url(#clip0_28_900)">
<g clip-path="url(#clip1_28_900)">
<path d="M14.399 12.794C13.475 12.942 12.677 12.757 12.618 12.382C12.558 12.007 13.258 11.584 14.183 11.437C15.107 11.29 15.904 11.475 15.963 11.849C16.023 12.223 15.323 12.647 14.399 12.794ZM13.521 16.654C13.183 16.826 12.564 16.291 12.139 15.458C11.713 14.624 11.642 13.808 11.981 13.636C12.319 13.464 12.937 13.999 13.363 14.832C13.788 15.665 13.86 16.482 13.521 16.654ZM9.88101 15.102C9.21901 15.764 8.46601 16.083 8.19801 15.815C7.92801 15.547 8.24801 14.793 8.90801 14.131C9.56801 13.468 10.322 13.149 10.591 13.417C10.86 13.685 10.541 14.44 9.88101 15.102ZM7.35001 10.492C7.52101 10.153 8.33701 10.224 9.17001 10.648C10.004 11.072 10.542 11.69 10.37 12.028C10.197 12.366 9.38201 12.297 8.54801 11.873C7.71401 11.449 7.17801 10.83 7.35001 10.492ZM12.15 8.04199C12.525 8.09999 12.71 8.89799 12.564 9.82199C12.419 10.747 11.998 11.447 11.622 11.389C11.248 11.329 11.062 10.532 11.207 9.60899C11.352 8.68399 11.774 7.98399 12.15 8.04199ZM23.985 10.571C23.907 10.08 23.64 9.93899 22.996 9.73399L19.234 8.53399C19.234 8.53399 16.951 7.67099 15.26 8.89099C15.032 9.05499 14.796 9.24199 14.56 9.44099C14.758 9.20499 14.945 8.96899 15.11 8.74099C16.325 7.04699 15.459 4.76599 15.459 4.76599L14.252 1.00499C14.045 0.361987 13.905 0.0949871 13.412 0.0189871C12.92 -0.0590129 12.705 0.150987 12.311 0.698987L10.006 3.90799C10.006 3.90799 8.48201 5.81099 9.11801 7.79799C9.20401 8.06399 9.30901 8.34699 9.42601 8.63399C9.2694 8.38136 9.10362 8.13453 8.92901 7.89399C7.69301 6.21499 5.25801 6.33199 5.25801 6.33199C5.25801 6.33199 1.82001 6.31999 1.30801 6.31999C0.632007 6.31699 0.336007 6.36999 0.110007 6.81299C-0.115993 7.25599 0.017007 7.52699 0.417007 8.07099C0.720007 8.48599 2.75701 11.254 2.75701 11.254C2.75701 11.254 4.09501 13.292 6.18001 13.3C6.46001 13.301 6.76001 13.288 7.06901 13.266C6.78116 13.337 6.49598 13.4184 6.21401 13.51C4.23401 14.166 3.59501 16.52 3.59501 16.52L2.36001 20.273C2.15001 20.913 2.10801 21.212 2.46001 21.563C2.81201 21.916 3.11001 21.873 3.75101 21.661C4.24001 21.501 7.50101 20.419 7.50101 20.419C7.50101 20.419 9.85301 19.775 10.505 17.795C10.593 17.529 10.674 17.239 10.748 16.941C10.7262 17.2361 10.7162 17.532 10.718 17.828C10.728 19.913 12.769 21.249 12.769 21.249L15.955 23.582C16.501 23.98 16.771 24.113 17.215 23.887C17.658 23.661 17.71 23.364 17.706 22.688L17.684 18.738C17.684 18.738 17.798 16.303 16.117 15.07C15.8769 14.8959 15.6304 14.7307 15.378 14.575C15.665 14.69 15.946 14.795 16.214 14.879C18.2 15.512 20.102 13.985 20.102 13.985L23.306 11.675C23.853 11.28 24.062 11.063 23.985 10.571Z" fill="#141414"/>
</g>
</g>
<defs>
<clipPath id="clip0_28_900">
<rect width="24" height="24" fill="white"/>
</clipPath>
<clipPath id="clip1_28_900">
<rect width="24" height="24" fill="white"/>
</clipPath>
</defs>
</svg>
