<svg width="14" height="18" viewBox="0 0 14 18" fill="none" xmlns="http://www.w3.org/2000/svg">
<path fill-rule="evenodd" clip-rule="evenodd" d="M3.18129 3.81871C3.18129 1.70969 4.89098 0 7 0C9.10901 0 10.8187 1.70969 10.8187 3.81871C10.8187 5.92772 9.10901 7.63741 7 7.63741C4.89098 7.63741 3.18129 5.92772 3.18129 3.81871Z" fill="#9A9A9A"/>
<path fill-rule="evenodd" clip-rule="evenodd" d="M9.49865e-05 15.7885C0.065726 11.9785 3.17449 8.91031 7 8.91031C10.8256 8.91031 13.9344 11.9786 13.9999 15.7888C14.0042 16.0415 13.8587 16.2728 13.629 16.3782C11.6102 17.3045 9.36464 17.8206 7.00027 17.8206C4.63568 17.8206 2.38992 17.3044 0.370998 16.3779C0.141307 16.2725 -0.00425776 16.0412 9.49865e-05 15.7885Z" fill="#9A9A9A"/>
</svg>
